Coordinates
version=1
nRows=17
nColumns=24
inDegrees=yes

Units are S.I. units (second, meters, Newtons, ...)
Angles are in degrees.

endheader
time	pelvis_tilt	pelvis_list	pelvis_rotation	pelvis_tx	pelvis_ty	pelvis_tz	hip_flexion_r	hip_adduction_r	hip_rotation_r	knee_angle_r	ankle_angle_r	subtalar_angle_r	mtp_angle_r	hip_flexion_l	hip_adduction_l	hip_rotation_l	knee_angle_l	ankle_angle_l	subtalar_angle_l	mtp_angle_l	lumbar_extension	lumbar_bending	lumbar_rotation
      8.04000000	      7.12284750	     -3.87943568	     -3.86753444	      2.27393463	      0.94516801	     -0.24651332	     12.34580558	      4.42923849	     -4.77309963	    -58.69754201	     -0.01901587	    -15.82670744	      0.00000000	     -1.08772049	      1.36936287	     -1.85068261	    -10.87282448	      8.69611406	     -6.66312288	      0.00000000	    -24.07478564	      3.75773931	      1.11253691
      8.05000000	      7.06750388	     -3.97936394	     -3.66628556	      2.28266473	      0.94559955	     -0.24709904	     13.21932365	      4.58919027	     -5.06699163	    -57.43040706	      1.60021649	    -14.71087195	      0.00000000	     -1.78580792	      1.31300224	     -1.82836668	    -10.54551881	      9.11806799	     -6.42719191	      0.00000000	    -24.03743400	      3.97792700	      0.86463088
      8.06000000	      7.00709524	     -4.02324629	     -3.45336008	      2.29139472	      0.94586833	     -0.24765597	     14.01784716	      4.67738618	     -5.38008936	    -55.92866644	      3.08903887	    -13.59057519	      0.00000000	     -2.47354072	      1.30922322	     -1.83095101	    -10.21014666	      9.50071984	     -6.17825239	      0.00000000	    -24.00520091	      4.12978241	      0.61248577
      8.07000000	      6.94331505	     -4.08019637	     -3.19366934	      2.30015235	      0.94602720	     -0.24821193	     14.70275690	      4.77972442	     -5.72496263	    -54.13109631	      4.29711465	    -12.55831405	      0.00000000	     -3.14762896	      1.28378362	     -1.74742719	     -9.89568021	      9.92011391	     -5.95681590	      0.00000000	    -23.97116440	      4.30978092	      0.30923054
      8.08000000	      6.87228879	     -4.12429197	     -2.91421242	      2.30893184	      0.94605947	     -0.24873470	     15.28387624	      4.86488076	     -6.09728675	    -52.05652415	      5.28884313	    -11.63719115	      0.00000000	     -3.80372813	      1.26461436	     -1.62111802	     -9.59888320	     10.33155785	     -5.76657829	      0.00000000	    -23.93676370	      4.47453539	     -0.01356696
      8.09000000	      6.79887844	     -4.15478614	     -2.61619324	      2.31774520	      0.94597323	     -0.24923100	     15.74784739	      4.93327648	     -6.49471245	    -49.70030217	      6.06838358	    -10.83808805	      0.00000000	     -4.44606683	      1.25335889	     -1.44224972	     -9.32609967	     10.73600419	     -5.61688256	      0.00000000	    -23.90162325	      4.62780754	     -0.35104550
      8.10000000	      6.72197486	     -4.16938608	     -2.31405634	      2.32660262	      0.94576033	     -0.24966654	     16.09635291	      4.98434188	     -6.91874600	    -47.07297049	      6.64528354	    -10.13967856	      0.00000000	     -5.07893194	      1.25253854	     -1.21685048	     -9.07204839	     11.13442786	     -5.51492292	      0.00000000	    -23.86284442	      4.75087323	     -0.69805973
      8.11000000	      6.62264191	     -4.16211778	     -2.00644197	      2.33551963	      0.94538269	     -0.25005666	     16.34886571	      5.00895326	     -7.39101287	    -44.18393493	      6.99781729	     -9.58381341	      0.00000000	     -5.67680765	      1.26751451	     -0.97372946	     -8.84440984	     11.53776559	     -5.46863622	      0.00000000	    -23.78961172	      4.85043718	     -1.02788413
      8.12000000	      6.55103553	     -4.10227896	     -1.71872486	      2.34450977	      0.94489143	     -0.25037893	     16.45911192	      4.98590110	     -7.86892340	    -41.07130027	      7.29059945	     -8.95080625	      0.00000000	     -6.31135619	      1.33886070	     -0.70791847	     -8.61627778	     11.90473509	     -5.44689834	      0.00000000	    -23.73827472	      4.88286139	     -1.36013177
      8.13000000	      6.49183854	     -3.99944936	     -1.44276988	      2.35356424	      0.94426488	     -0.25061401	     16.44629440	      4.93181382	     -8.36210100	    -37.75157524	      7.52063182	     -8.21465220	      0.00000000	     -6.96024728	      1.45082834	     -0.40609364	     -8.39662445	     12.22475615	     -5.46905025	      0.00000000	    -23.70042824	      4.84053264	     -1.68974160
      8.14000000	      6.41845965	     -3.84852850	     -1.17314967	      2.36271268	      0.94345122	     -0.25079282	     16.35278656	      4.83475556	     -8.91192669	    -34.26797281	      7.61028645	     -7.44307614	      0.00000000	     -7.58800675	      1.60887231	     -0.10125678	     -8.20037181	     12.55868719	     -5.52059904	      0.00000000	    -23.62528800	      4.73563743	     -2.00964924
      8.15000000	      6.35652973	     -3.64620397	     -0.90896754	      2.37194397	      0.94248935	     -0.25090858	     16.16439757	      4.70223978	     -9.49415470	    -30.66270220	      7.63454664	     -6.52919475	      0.00000000	     -8.22594046	      1.81537600	      0.21026339	     -8.01943397	     12.88802880	     -5.58524972	      0.00000000	    -23.54832932	      4.56483207	     -2.32682631
      8.16000000	      6.30031893	     -3.39975093	     -0.65260954	      2.38125933	      0.94138094	     -0.25095904	     15.90172293	      4.54593317	    -10.10323826	    -26.97970298	      7.60673128	     -5.44938529	      0.00000000	     -8.86426462	      2.06088892	      0.51931746	     -7.86214432	     13.20868055	     -5.66026793	      0.00000000	    -23.46766267	      4.33029200	     -2.63526447
      8.17000000	      6.24375856	     -3.11115052	     -0.41017564	      2.39066862	      0.94012887	     -0.25095076	     15.59440972	      4.36842651	    -10.73608156	    -23.28127223	      7.54936577	     -4.14845143	      0.00000000	     -9.50589500	      2.34536555	      0.81340519	     -7.71256739	     13.51467271	     -5.76415780	      0.00000000	    -23.36972133	      4.04030181	     -2.92403885
      8.18000000	      6.22175997	     -2.78199975	     -0.16434016	      2.40014356	      0.93879907	     -0.25087656	     15.20979469	      4.18484523	    -11.31480129	    -19.58983634	      7.39492499	     -2.85981961	      0.00000000	    -10.17427700	      2.65896285	      1.09894421	     -7.59757670	     13.86476319	     -5.80302397	      0.00000000	    -23.31205654	      3.69159021	     -3.22523867
      8.19000000	      6.22199369	     -2.42377887	      0.08110996	      2.40968596	      0.93739710	     -0.25074884	     14.77858005	      3.99816177	    -11.83233157	    -15.96421504	      7.19780529	     -1.57033523	      0.00000000	    -10.85585265	      2.98942220	      1.35996240	     -7.51813910	     14.22309471	     -5.79323186	      0.00000000	    -23.28758622	      3.30456179	     -3.52385655
      8.20000000	      6.25026958	     -2.05355437	      0.32552305	      2.41931602	      0.93594736	     -0.25057150	     14.29622078	      3.82658412	    -12.21767957	    -12.44125010	      6.96054338	     -0.43476341	      0.00000000	    -11.56401761	      3.31698998	      1.57524525	     -7.46210345	     14.57676615	     -5.72395227	      0.00000000	    -23.28938980	      2.91203594	     -3.82011034
